<?xml version="1.0" encoding="UTF-8" standalone="no"?>
<svg
   width="25"
   height="25"
   fill="none"
   version="1.1"
   id="svg26"
   xmlns="http://www.w3.org/2000/svg"
   xmlns:svg="http://www.w3.org/2000/svg">
  <mask
     id="mask0_3280_31773"
     style="mask-type:luminance"
     maskUnits="userSpaceOnUse"
     x="0"
     y="0"
     width="25"
     height="25">
    <path
       fill-rule="evenodd"
       clip-rule="evenodd"
       d="M21.3472 0.552246C23.5245 0.552246 24.379 2.33071 24.379 3.5709C24.379 4.81108 24.379 19.3338 24.379 21.1943C24.379 22.9452 23.1505 24.5089 21.3472 24.5089C19.5439 24.5089 5.07166 24.5089 3.23165 24.5089C1.80898 24.5089 0.422363 23.067 0.422363 21.7109C0.422363 20.3548 0.422363 4.58758 0.422363 3.2248C0.422363 1.86202 1.78776 0.552246 3.03192 0.552246C4.27608 0.552246 19.3825 0.552246 21.3472 0.552246Z"
       fill="white" />
  </mask>
  <g mask="url(#mask0_3280_31773)">
    <rect
       x="0.422363"
       y="0.552246"
       width="24"
       height="24"
       fill="#be0712"/>
  </g>
  <path
     class="st1"
     d="m 23.997483,12.530573 c 0,6.399405 -5.182222,11.626643 -11.596801,11.626643 -6.382981,0 -11.596802,-5.195557 -11.596802,-11.626643 0,-6.4310866 5.182221,-11.6266434 11.596802,-11.6266434 6.414579,0 11.596801,5.1955568 11.596801,11.6266434"
     id="path20"
     style="fill:#ffffff;fill-opacity:1;stroke-width:0.316395" />
  <path
     style="fill:#be0712;fill-opacity:1;stroke-width:0.0179564"
     d="m 7.1462268,21.059559 c -1.053162,-0.135245 -1.884924,-0.982519 -2.00455,-2.041926 -0.01387,-0.122766 -0.01789,-2.015933 -0.0138,-6.493971 0.0055,-6.0059018 0.0074,-6.3273958 0.03801,-6.4553618 0.04795,-0.200408 0.128353,-0.431897 0.198163,-0.570521 0.35927,-0.713412 1.039008,-1.187239 1.833623,-1.278168 0.08888,-0.01018 0.486708,-0.01856 0.884053,-0.01863 l 0.7224487,-2.04e-4 0.04409,-0.0853 c 0.154103,-0.2980608 0.481026,-0.5374017 0.8274,-0.605735 0.127702,-0.025198 0.4427365,-0.027789 2.8371275,-0.023288 l 2.693473,0.00504 0.150856,0.052661 c 0.278505,0.097171 0.525272,0.2986117 0.66616,0.543756 l 0.06285,0.109353 0.825997,0.0081 c 0.763723,0.0074 0.839192,0.01104 1.000965,0.04697 0.2301,0.05113 0.397822,0.112081 0.606819,0.220547 0.521965,0.270886 0.932637,0.752379 1.121448,1.314837 0.114767,0.341887 0.105617,0.0028 0.111857,4.144898 l 0.0056,3.7656468 -0.05082,-0.02172 c -0.02794,-0.0119 -0.241952,-0.110547 -0.475564,-0.219184 l -0.424748,-0.19752 -0.0053,-3.4745838 c -0.0051,-3.328322 -0.0067,-3.479495 -0.03886,-3.591299 -0.116273,-0.405161 -0.362683,-0.706145 -0.720159,-0.87965 -0.287243,-0.139414 -0.324125,-0.14387 -1.190798,-0.14387 h -0.752743 l -0.06876,0.117576 c -0.151046,0.25828 -0.385858,0.452507 -0.670074,0.55426 l -0.154744,0.0554 -2.693476,0.005 c -2.399446,0.0045 -2.7091565,0.0019 -2.8371255,-0.02341 -0.351453,-0.06963 -0.670264,-0.305768 -0.830524,-0.615146 l -0.04935,-0.09525 -0.8080417,0.0058 c -0.789196,0.0057 -0.810973,0.0067 -0.933737,0.04744 -0.385751,0.127837 -0.670952,0.376766 -0.835727,0.729437 -0.13682,0.292836 -0.124945,-0.342986 -0.124945,6.6915598 0,6.175152 6.3e-4,6.315119 0.03462,6.447564 0.121104,0.473509 0.510323,0.863563 0.982131,0.984231 0.134582,0.03442 0.212004,0.03534 2.9528592,0.03534 h 2.814657 l 0.378724,0.484825 0.378721,0.484827 -3.182785,-0.0022 C 8.7017215,21.07639 7.2139918,21.06829 7.1461918,21.05958 Z m 6.9704382,-2.130138 c -0.952339,-0.985017 -1.734789,-1.799019 -1.738775,-1.808896 -0.0081,-0.02012 0.98615,-0.889692 1.014601,-0.88736 0.01,8.18e-4 0.510732,0.514027 1.112796,1.140466 0.602065,0.626439 1.100236,1.136856 1.107051,1.134262 0.0068,-0.0026 1.50604,-1.451667 3.331614,-3.220164 1.825576,-1.768494 3.415679,-3.307817 3.533565,-3.420714 l 0.214337,-0.205265 -0.168609,0.224455 c -0.09274,0.123451 -1.579432,2.091034 -3.303773,4.372409 -1.724338,2.281374 -3.188289,4.218555 -3.253219,4.304849 l -0.118056,0.156896 z M 8.8766055,13.34966 v -0.475847 h 3.5733445 3.573343 v 0.475847 0.475848 H 12.44995 8.8766055 Z m 0,-3.8876258 v -0.484869 l 3.5688555,0.0046 3.568856,0.0046 0.0048,0.480336 0.0048,0.480338 h -3.57364 -3.5736365 z"
     id="path898" />
</svg>
